<mxfile host="app.diagrams.net" agent="Mozilla/5.0 (Macintosh; Intel Mac OS X 10_15_7) AppleWebKit/537.36 (KHTML, like Gecko) Chrome/133.0.0.0 Safari/537.36" version="26.1.0">
  <diagram name="Page-1" id="c4acf3e9-155e-7222-9cf6-157b1a14988f">
    <mxGraphModel dx="1430" dy="764" grid="1" gridSize="10" guides="1" tooltips="1" connect="1" arrows="1" fold="1" page="1" pageScale="1" pageWidth="850" pageHeight="1100" background="none" math="0" shadow="0">
      <root>
        <mxCell id="0" />
        <mxCell id="1" parent="0" />
        <mxCell id="VxxBcBzSQ26VVozvf14f-16" value="Animes" style="swimlane;fontStyle=0;childLayout=stackLayout;horizontal=1;startSize=26;fillColor=#f8cecc;horizontalStack=0;resizeParent=1;resizeParentMax=0;resizeLast=0;collapsible=1;marginBottom=0;html=1;fillStyle=solid;strokeColor=#b85450;" vertex="1" parent="1">
          <mxGeometry x="370" y="200" width="100" height="260" as="geometry" />
        </mxCell>
        <mxCell id="VxxBcBzSQ26VVozvf14f-17" value="Anime_ID" style="text;strokeColor=none;fillColor=none;align=left;verticalAlign=top;spacingLeft=4;spacingRight=4;overflow=hidden;rotatable=0;points=[[0,0.5],[1,0.5]];portConstraint=eastwest;whiteSpace=wrap;html=1;" vertex="1" parent="VxxBcBzSQ26VVozvf14f-16">
          <mxGeometry y="26" width="100" height="26" as="geometry" />
        </mxCell>
        <mxCell id="VxxBcBzSQ26VVozvf14f-18" value="Name" style="text;strokeColor=none;fillColor=none;align=left;verticalAlign=top;spacingLeft=4;spacingRight=4;overflow=hidden;rotatable=0;points=[[0,0.5],[1,0.5]];portConstraint=eastwest;whiteSpace=wrap;html=1;" vertex="1" parent="VxxBcBzSQ26VVozvf14f-16">
          <mxGeometry y="52" width="100" height="26" as="geometry" />
        </mxCell>
        <mxCell id="VxxBcBzSQ26VVozvf14f-27" value="Score" style="text;strokeColor=none;fillColor=none;align=left;verticalAlign=top;spacingLeft=4;spacingRight=4;overflow=hidden;rotatable=0;points=[[0,0.5],[1,0.5]];portConstraint=eastwest;whiteSpace=wrap;html=1;" vertex="1" parent="VxxBcBzSQ26VVozvf14f-16">
          <mxGeometry y="78" width="100" height="26" as="geometry" />
        </mxCell>
        <mxCell id="VxxBcBzSQ26VVozvf14f-28" value="Aired" style="text;strokeColor=none;fillColor=none;align=left;verticalAlign=top;spacingLeft=4;spacingRight=4;overflow=hidden;rotatable=0;points=[[0,0.5],[1,0.5]];portConstraint=eastwest;whiteSpace=wrap;html=1;" vertex="1" parent="VxxBcBzSQ26VVozvf14f-16">
          <mxGeometry y="104" width="100" height="26" as="geometry" />
        </mxCell>
        <mxCell id="VxxBcBzSQ26VVozvf14f-42" value="Duration" style="text;strokeColor=none;fillColor=none;align=left;verticalAlign=top;spacingLeft=4;spacingRight=4;overflow=hidden;rotatable=0;points=[[0,0.5],[1,0.5]];portConstraint=eastwest;whiteSpace=wrap;html=1;" vertex="1" parent="VxxBcBzSQ26VVozvf14f-16">
          <mxGeometry y="130" width="100" height="26" as="geometry" />
        </mxCell>
        <mxCell id="VxxBcBzSQ26VVozvf14f-43" value="Ranked" style="text;strokeColor=none;fillColor=none;align=left;verticalAlign=top;spacingLeft=4;spacingRight=4;overflow=hidden;rotatable=0;points=[[0,0.5],[1,0.5]];portConstraint=eastwest;whiteSpace=wrap;html=1;" vertex="1" parent="VxxBcBzSQ26VVozvf14f-16">
          <mxGeometry y="156" width="100" height="26" as="geometry" />
        </mxCell>
        <mxCell id="VxxBcBzSQ26VVozvf14f-97" value="Popularity" style="text;strokeColor=none;fillColor=none;align=left;verticalAlign=top;spacingLeft=4;spacingRight=4;overflow=hidden;rotatable=0;points=[[0,0.5],[1,0.5]];portConstraint=eastwest;whiteSpace=wrap;html=1;" vertex="1" parent="VxxBcBzSQ26VVozvf14f-16">
          <mxGeometry y="182" width="100" height="26" as="geometry" />
        </mxCell>
        <mxCell id="VxxBcBzSQ26VVozvf14f-96" value="Popularity" style="text;strokeColor=none;fillColor=none;align=left;verticalAlign=top;spacingLeft=4;spacingRight=4;overflow=hidden;rotatable=0;points=[[0,0.5],[1,0.5]];portConstraint=eastwest;whiteSpace=wrap;html=1;" vertex="1" parent="VxxBcBzSQ26VVozvf14f-16">
          <mxGeometry y="208" width="100" height="26" as="geometry" />
        </mxCell>
        <mxCell id="VxxBcBzSQ26VVozvf14f-19" value="Popularity" style="text;strokeColor=none;fillColor=none;align=left;verticalAlign=top;spacingLeft=4;spacingRight=4;overflow=hidden;rotatable=0;points=[[0,0.5],[1,0.5]];portConstraint=eastwest;whiteSpace=wrap;html=1;" vertex="1" parent="VxxBcBzSQ26VVozvf14f-16">
          <mxGeometry y="234" width="100" height="26" as="geometry" />
        </mxCell>
        <mxCell id="VxxBcBzSQ26VVozvf14f-20" value="Genre" style="swimlane;fontStyle=0;childLayout=stackLayout;horizontal=1;startSize=26;fillColor=#f8cecc;horizontalStack=0;resizeParent=1;resizeParentMax=0;resizeLast=0;collapsible=1;marginBottom=0;html=1;strokeColor=#b85450;" vertex="1" parent="1">
          <mxGeometry x="40" y="300" width="110" height="78" as="geometry" />
        </mxCell>
        <mxCell id="VxxBcBzSQ26VVozvf14f-21" value="Genre_ID" style="text;strokeColor=none;fillColor=none;align=left;verticalAlign=top;spacingLeft=4;spacingRight=4;overflow=hidden;rotatable=0;points=[[0,0.5],[1,0.5]];portConstraint=eastwest;whiteSpace=wrap;html=1;" vertex="1" parent="VxxBcBzSQ26VVozvf14f-20">
          <mxGeometry y="26" width="110" height="26" as="geometry" />
        </mxCell>
        <mxCell id="VxxBcBzSQ26VVozvf14f-22" value="Name" style="text;strokeColor=none;fillColor=none;align=left;verticalAlign=top;spacingLeft=4;spacingRight=4;overflow=hidden;rotatable=0;points=[[0,0.5],[1,0.5]];portConstraint=eastwest;whiteSpace=wrap;html=1;" vertex="1" parent="VxxBcBzSQ26VVozvf14f-20">
          <mxGeometry y="52" width="110" height="26" as="geometry" />
        </mxCell>
        <mxCell id="VxxBcBzSQ26VVozvf14f-24" value="Type" style="swimlane;fontStyle=0;childLayout=stackLayout;horizontal=1;startSize=26;fillColor=#f8cecc;horizontalStack=0;resizeParent=1;resizeParentMax=0;resizeLast=0;collapsible=1;marginBottom=0;html=1;strokeColor=#b85450;" vertex="1" parent="1">
          <mxGeometry x="40" y="200" width="110" height="78" as="geometry" />
        </mxCell>
        <mxCell id="VxxBcBzSQ26VVozvf14f-25" value="Type_ID" style="text;strokeColor=none;fillColor=none;align=left;verticalAlign=top;spacingLeft=4;spacingRight=4;overflow=hidden;rotatable=0;points=[[0,0.5],[1,0.5]];portConstraint=eastwest;whiteSpace=wrap;html=1;" vertex="1" parent="VxxBcBzSQ26VVozvf14f-24">
          <mxGeometry y="26" width="110" height="26" as="geometry" />
        </mxCell>
        <mxCell id="VxxBcBzSQ26VVozvf14f-26" value="Name" style="text;strokeColor=none;fillColor=none;align=left;verticalAlign=top;spacingLeft=4;spacingRight=4;overflow=hidden;rotatable=0;points=[[0,0.5],[1,0.5]];portConstraint=eastwest;whiteSpace=wrap;html=1;" vertex="1" parent="VxxBcBzSQ26VVozvf14f-24">
          <mxGeometry y="52" width="110" height="26" as="geometry" />
        </mxCell>
        <mxCell id="VxxBcBzSQ26VVozvf14f-29" value="Prodicers" style="swimlane;fontStyle=0;childLayout=stackLayout;horizontal=1;startSize=26;fillColor=#f8cecc;horizontalStack=0;resizeParent=1;resizeParentMax=0;resizeLast=0;collapsible=1;marginBottom=0;html=1;strokeColor=#b85450;" vertex="1" parent="1">
          <mxGeometry x="700" y="441" width="100" height="80" as="geometry" />
        </mxCell>
        <mxCell id="VxxBcBzSQ26VVozvf14f-30" value="Producer_ID" style="text;strokeColor=none;fillColor=none;align=left;verticalAlign=top;spacingLeft=4;spacingRight=4;overflow=hidden;rotatable=0;points=[[0,0.5],[1,0.5]];portConstraint=eastwest;whiteSpace=wrap;html=1;" vertex="1" parent="VxxBcBzSQ26VVozvf14f-29">
          <mxGeometry y="26" width="100" height="26" as="geometry" />
        </mxCell>
        <mxCell id="VxxBcBzSQ26VVozvf14f-31" value="Name" style="text;strokeColor=none;fillColor=none;align=left;verticalAlign=top;spacingLeft=4;spacingRight=4;overflow=hidden;rotatable=0;points=[[0,0.5],[1,0.5]];portConstraint=eastwest;whiteSpace=wrap;html=1;" vertex="1" parent="VxxBcBzSQ26VVozvf14f-29">
          <mxGeometry y="52" width="100" height="28" as="geometry" />
        </mxCell>
        <mxCell id="VxxBcBzSQ26VVozvf14f-32" value="Studios" style="swimlane;fontStyle=0;childLayout=stackLayout;horizontal=1;startSize=26;fillColor=#f8cecc;horizontalStack=0;resizeParent=1;resizeParentMax=0;resizeLast=0;collapsible=1;marginBottom=0;html=1;strokeColor=#b85450;" vertex="1" parent="1">
          <mxGeometry x="40" y="441" width="110" height="78" as="geometry" />
        </mxCell>
        <mxCell id="VxxBcBzSQ26VVozvf14f-33" value="Studio_ID" style="text;strokeColor=none;fillColor=none;align=left;verticalAlign=top;spacingLeft=4;spacingRight=4;overflow=hidden;rotatable=0;points=[[0,0.5],[1,0.5]];portConstraint=eastwest;whiteSpace=wrap;html=1;" vertex="1" parent="VxxBcBzSQ26VVozvf14f-32">
          <mxGeometry y="26" width="110" height="26" as="geometry" />
        </mxCell>
        <mxCell id="VxxBcBzSQ26VVozvf14f-34" value="Name" style="text;strokeColor=none;fillColor=none;align=left;verticalAlign=top;spacingLeft=4;spacingRight=4;overflow=hidden;rotatable=0;points=[[0,0.5],[1,0.5]];portConstraint=eastwest;whiteSpace=wrap;html=1;" vertex="1" parent="VxxBcBzSQ26VVozvf14f-32">
          <mxGeometry y="52" width="110" height="26" as="geometry" />
        </mxCell>
        <mxCell id="VxxBcBzSQ26VVozvf14f-35" value="Sources" style="swimlane;fontStyle=0;childLayout=stackLayout;horizontal=1;startSize=27;fillColor=#f8cecc;horizontalStack=0;resizeParent=1;resizeParentMax=0;resizeLast=0;collapsible=1;marginBottom=0;html=1;strokeColor=#b85450;" vertex="1" parent="1">
          <mxGeometry x="700" y="300" width="100" height="79" as="geometry" />
        </mxCell>
        <mxCell id="VxxBcBzSQ26VVozvf14f-36" value="Source_ID" style="text;strokeColor=none;fillColor=none;align=left;verticalAlign=top;spacingLeft=4;spacingRight=4;overflow=hidden;rotatable=0;points=[[0,0.5],[1,0.5]];portConstraint=eastwest;whiteSpace=wrap;html=1;" vertex="1" parent="VxxBcBzSQ26VVozvf14f-35">
          <mxGeometry y="27" width="100" height="26" as="geometry" />
        </mxCell>
        <mxCell id="VxxBcBzSQ26VVozvf14f-37" value="Name" style="text;strokeColor=none;fillColor=none;align=left;verticalAlign=top;spacingLeft=4;spacingRight=4;overflow=hidden;rotatable=0;points=[[0,0.5],[1,0.5]];portConstraint=eastwest;whiteSpace=wrap;html=1;" vertex="1" parent="VxxBcBzSQ26VVozvf14f-35">
          <mxGeometry y="53" width="100" height="26" as="geometry" />
        </mxCell>
        <mxCell id="VxxBcBzSQ26VVozvf14f-39" value="Ratings" style="swimlane;fontStyle=0;childLayout=stackLayout;horizontal=1;startSize=26;fillColor=#f8cecc;horizontalStack=0;resizeParent=1;resizeParentMax=0;resizeLast=0;collapsible=1;marginBottom=0;html=1;strokeColor=#b85450;" vertex="1" parent="1">
          <mxGeometry x="700" y="200" width="100" height="78" as="geometry" />
        </mxCell>
        <mxCell id="VxxBcBzSQ26VVozvf14f-40" value="Rating_ID" style="text;strokeColor=none;fillColor=none;align=left;verticalAlign=top;spacingLeft=4;spacingRight=4;overflow=hidden;rotatable=0;points=[[0,0.5],[1,0.5]];portConstraint=eastwest;whiteSpace=wrap;html=1;" vertex="1" parent="VxxBcBzSQ26VVozvf14f-39">
          <mxGeometry y="26" width="100" height="26" as="geometry" />
        </mxCell>
        <mxCell id="VxxBcBzSQ26VVozvf14f-41" value="Name" style="text;strokeColor=none;fillColor=none;align=left;verticalAlign=top;spacingLeft=4;spacingRight=4;overflow=hidden;rotatable=0;points=[[0,0.5],[1,0.5]];portConstraint=eastwest;whiteSpace=wrap;html=1;" vertex="1" parent="VxxBcBzSQ26VVozvf14f-39">
          <mxGeometry y="52" width="100" height="26" as="geometry" />
        </mxCell>
        <mxCell id="VxxBcBzSQ26VVozvf14f-61" value="A pour" style="swimlane;fontStyle=1;align=center;verticalAlign=middle;childLayout=stackLayout;horizontal=1;startSize=30;horizontalStack=0;resizeParent=0;resizeLast=1;container=0;fontColor=#000000;collapsible=0;rounded=1;arcSize=20;strokeColor=#ff0000;fillColor=#ffffc0;swimlaneFillColor=#ffffc0;dropTarget=0;" vertex="1" parent="1">
          <mxGeometry x="540" y="218" width="100" height="60" as="geometry" />
        </mxCell>
        <mxCell id="VxxBcBzSQ26VVozvf14f-62" value="A pour" style="swimlane;fontStyle=1;align=center;verticalAlign=middle;childLayout=stackLayout;horizontal=1;startSize=30;horizontalStack=0;resizeParent=0;resizeLast=1;container=0;fontColor=#000000;collapsible=0;rounded=1;arcSize=20;strokeColor=#ff0000;fillColor=#ffffc0;swimlaneFillColor=#ffffc0;dropTarget=0;" vertex="1" parent="1">
          <mxGeometry x="210" y="218" width="100" height="60" as="geometry" />
        </mxCell>
        <mxCell id="VxxBcBzSQ26VVozvf14f-63" value="A pour" style="swimlane;fontStyle=1;align=center;verticalAlign=middle;childLayout=stackLayout;horizontal=1;startSize=30;horizontalStack=0;resizeParent=0;resizeLast=1;container=0;fontColor=#000000;collapsible=0;rounded=1;arcSize=20;strokeColor=#ff0000;fillColor=#ffffc0;swimlaneFillColor=#ffffc0;dropTarget=0;" vertex="1" parent="1">
          <mxGeometry x="540" y="309.5" width="100" height="60" as="geometry" />
        </mxCell>
        <mxCell id="VxxBcBzSQ26VVozvf14f-64" value="A pour" style="swimlane;fontStyle=1;align=center;verticalAlign=middle;childLayout=stackLayout;horizontal=1;startSize=30;horizontalStack=0;resizeParent=0;resizeLast=1;container=0;fontColor=#000000;collapsible=0;rounded=1;arcSize=20;strokeColor=#ff0000;fillColor=#ffffc0;swimlaneFillColor=#ffffc0;dropTarget=0;" vertex="1" parent="1">
          <mxGeometry x="210" y="309.5" width="100" height="60" as="geometry" />
        </mxCell>
        <mxCell id="VxxBcBzSQ26VVozvf14f-71" value="" style="line;strokeWidth=1;html=1;perimeter=backbonePerimeter;points=[];outlineConnect=0;" vertex="1" parent="1">
          <mxGeometry x="150" y="250" width="60" height="10" as="geometry" />
        </mxCell>
        <mxCell id="VxxBcBzSQ26VVozvf14f-72" value="" style="line;strokeWidth=1;html=1;perimeter=backbonePerimeter;points=[];outlineConnect=0;" vertex="1" parent="1">
          <mxGeometry x="310" y="250" width="60" height="10" as="geometry" />
        </mxCell>
        <mxCell id="VxxBcBzSQ26VVozvf14f-73" value="" style="line;strokeWidth=1;html=1;perimeter=backbonePerimeter;points=[];outlineConnect=0;" vertex="1" parent="1">
          <mxGeometry x="470" y="344.5" width="70" height="10" as="geometry" />
        </mxCell>
        <mxCell id="VxxBcBzSQ26VVozvf14f-74" value="" style="line;strokeWidth=1;html=1;perimeter=backbonePerimeter;points=[];outlineConnect=0;" vertex="1" parent="1">
          <mxGeometry x="640" y="345" width="60" height="10" as="geometry" />
        </mxCell>
        <mxCell id="VxxBcBzSQ26VVozvf14f-75" value="" style="line;strokeWidth=1;html=1;perimeter=backbonePerimeter;points=[];outlineConnect=0;" vertex="1" parent="1">
          <mxGeometry x="310" y="343" width="60" height="10" as="geometry" />
        </mxCell>
        <mxCell id="VxxBcBzSQ26VVozvf14f-76" value="" style="line;strokeWidth=1;html=1;perimeter=backbonePerimeter;points=[];outlineConnect=0;" vertex="1" parent="1">
          <mxGeometry x="150" y="343" width="60" height="10" as="geometry" />
        </mxCell>
        <mxCell id="VxxBcBzSQ26VVozvf14f-77" value="1,1" style="text;html=1;align=center;verticalAlign=middle;resizable=0;points=[];autosize=1;strokeColor=none;fillColor=none;" vertex="1" parent="1">
          <mxGeometry x="485" y="323" width="40" height="30" as="geometry" />
        </mxCell>
        <mxCell id="VxxBcBzSQ26VVozvf14f-78" value="0,N" style="text;html=1;align=center;verticalAlign=middle;resizable=0;points=[];autosize=1;strokeColor=none;fillColor=none;" vertex="1" parent="1">
          <mxGeometry x="650" y="323" width="40" height="30" as="geometry" />
        </mxCell>
        <mxCell id="VxxBcBzSQ26VVozvf14f-79" value="0,N" style="text;html=1;align=center;verticalAlign=middle;resizable=0;points=[];autosize=1;strokeColor=none;fillColor=none;" vertex="1" parent="1">
          <mxGeometry x="150" y="323" width="40" height="30" as="geometry" />
        </mxCell>
        <mxCell id="VxxBcBzSQ26VVozvf14f-80" value="0,N" style="text;html=1;align=center;verticalAlign=middle;resizable=0;points=[];autosize=1;strokeColor=none;fillColor=none;" vertex="1" parent="1">
          <mxGeometry x="320" y="323" width="40" height="30" as="geometry" />
        </mxCell>
        <mxCell id="VxxBcBzSQ26VVozvf14f-81" value="0,N" style="text;html=1;align=center;verticalAlign=middle;resizable=0;points=[];autosize=1;strokeColor=none;fillColor=none;" vertex="1" parent="1">
          <mxGeometry x="660" y="233" width="40" height="30" as="geometry" />
        </mxCell>
        <mxCell id="VxxBcBzSQ26VVozvf14f-82" value="0,N" style="text;html=1;align=center;verticalAlign=middle;resizable=0;points=[];autosize=1;strokeColor=none;fillColor=none;" vertex="1" parent="1">
          <mxGeometry x="150" y="230" width="40" height="30" as="geometry" />
        </mxCell>
        <mxCell id="VxxBcBzSQ26VVozvf14f-83" value="Produis" style="swimlane;fontStyle=1;align=center;verticalAlign=middle;childLayout=stackLayout;horizontal=1;startSize=30;horizontalStack=0;resizeParent=0;resizeLast=1;container=0;fontColor=#000000;collapsible=0;rounded=1;arcSize=20;strokeColor=#ff0000;fillColor=#ffffc0;swimlaneFillColor=#ffffc0;dropTarget=0;" vertex="1" parent="1">
          <mxGeometry x="550" y="441" width="100" height="60" as="geometry" />
        </mxCell>
        <mxCell id="VxxBcBzSQ26VVozvf14f-101" style="rounded=0;orthogonalLoop=1;jettySize=auto;html=1;entryX=1;entryY=0.5;entryDx=0;entryDy=0;endArrow=none;startFill=0;" edge="1" parent="1" target="VxxBcBzSQ26VVozvf14f-33">
          <mxGeometry relative="1" as="geometry">
            <mxPoint x="200" y="480" as="sourcePoint" />
          </mxGeometry>
        </mxCell>
        <mxCell id="VxxBcBzSQ26VVozvf14f-85" value="Produis" style="swimlane;fontStyle=1;align=center;verticalAlign=middle;childLayout=stackLayout;horizontal=1;startSize=30;horizontalStack=0;resizeParent=0;resizeLast=1;container=0;fontColor=#000000;collapsible=0;rounded=1;arcSize=20;strokeColor=#ff0000;fillColor=#ffffc0;swimlaneFillColor=#ffffc0;dropTarget=0;" vertex="1" parent="1">
          <mxGeometry x="200" y="441" width="100" height="60" as="geometry" />
        </mxCell>
        <mxCell id="VxxBcBzSQ26VVozvf14f-93" style="rounded=0;orthogonalLoop=1;jettySize=auto;html=1;entryX=0;entryY=0.75;entryDx=0;entryDy=0;strokeWidth=1;endArrow=none;startFill=0;" edge="1" parent="1" source="VxxBcBzSQ26VVozvf14f-18" target="VxxBcBzSQ26VVozvf14f-61">
          <mxGeometry relative="1" as="geometry" />
        </mxCell>
        <mxCell id="VxxBcBzSQ26VVozvf14f-94" style="rounded=0;orthogonalLoop=1;jettySize=auto;html=1;entryX=-0.01;entryY=0.34;entryDx=0;entryDy=0;entryPerimeter=0;endArrow=none;startFill=0;strokeWidth=1;" edge="1" parent="1" target="VxxBcBzSQ26VVozvf14f-41">
          <mxGeometry relative="1" as="geometry">
            <mxPoint x="640" y="260" as="sourcePoint" />
          </mxGeometry>
        </mxCell>
        <mxCell id="VxxBcBzSQ26VVozvf14f-98" style="edgeStyle=orthogonalEdgeStyle;rounded=0;orthogonalLoop=1;jettySize=auto;html=1;entryX=0;entryY=0.75;entryDx=0;entryDy=0;endArrow=none;startFill=0;" edge="1" parent="1" source="VxxBcBzSQ26VVozvf14f-97" target="VxxBcBzSQ26VVozvf14f-83">
          <mxGeometry relative="1" as="geometry">
            <Array as="points">
              <mxPoint x="510" y="395" />
              <mxPoint x="510" y="480" />
              <mxPoint x="550" y="480" />
            </Array>
          </mxGeometry>
        </mxCell>
        <mxCell id="VxxBcBzSQ26VVozvf14f-99" style="edgeStyle=orthogonalEdgeStyle;rounded=0;orthogonalLoop=1;jettySize=auto;html=1;entryX=1;entryY=0.75;entryDx=0;entryDy=0;endArrow=none;startFill=0;" edge="1" parent="1" source="VxxBcBzSQ26VVozvf14f-97" target="VxxBcBzSQ26VVozvf14f-85">
          <mxGeometry relative="1" as="geometry">
            <Array as="points">
              <mxPoint x="335" y="395" />
              <mxPoint x="335" y="480" />
              <mxPoint x="300" y="480" />
            </Array>
          </mxGeometry>
        </mxCell>
        <mxCell id="VxxBcBzSQ26VVozvf14f-100" style="rounded=0;orthogonalLoop=1;jettySize=auto;html=1;entryX=-0.003;entryY=0.134;entryDx=0;entryDy=0;entryPerimeter=0;endArrow=none;startFill=0;" edge="1" parent="1">
          <mxGeometry relative="1" as="geometry">
            <mxPoint x="650.3" y="480.9112236710131" as="sourcePoint" />
            <mxPoint x="700.0000000000002" y="480.6540000000001" as="targetPoint" />
          </mxGeometry>
        </mxCell>
        <mxCell id="VxxBcBzSQ26VVozvf14f-102" value="1,1" style="text;html=1;align=center;verticalAlign=middle;resizable=0;points=[];autosize=1;strokeColor=none;fillColor=none;" vertex="1" parent="1">
          <mxGeometry x="320" y="230" width="40" height="30" as="geometry" />
        </mxCell>
        <mxCell id="VxxBcBzSQ26VVozvf14f-103" value="1,1" style="text;html=1;align=center;verticalAlign=middle;resizable=0;points=[];autosize=1;strokeColor=none;fillColor=none;" vertex="1" parent="1">
          <mxGeometry x="470" y="233" width="40" height="30" as="geometry" />
        </mxCell>
        <mxCell id="VxxBcBzSQ26VVozvf14f-104" value="1,1" style="text;html=1;align=center;verticalAlign=middle;resizable=0;points=[];autosize=1;strokeColor=none;fillColor=none;" vertex="1" parent="1">
          <mxGeometry x="320" y="368" width="40" height="30" as="geometry" />
        </mxCell>
        <mxCell id="VxxBcBzSQ26VVozvf14f-105" value="0,N" style="text;html=1;align=center;verticalAlign=middle;resizable=0;points=[];autosize=1;strokeColor=none;fillColor=none;" vertex="1" parent="1">
          <mxGeometry x="150" y="480" width="40" height="30" as="geometry" />
        </mxCell>
        <mxCell id="VxxBcBzSQ26VVozvf14f-107" value="&amp;nbsp; 1,N" style="text;html=1;align=center;verticalAlign=middle;resizable=0;points=[];autosize=1;strokeColor=none;fillColor=none;" vertex="1" parent="1">
          <mxGeometry x="460" y="368" width="50" height="30" as="geometry" />
        </mxCell>
        <mxCell id="VxxBcBzSQ26VVozvf14f-108" value="0,N" style="text;html=1;align=center;verticalAlign=middle;resizable=0;points=[];autosize=1;strokeColor=none;fillColor=none;" vertex="1" parent="1">
          <mxGeometry x="660" y="478" width="40" height="30" as="geometry" />
        </mxCell>
      </root>
    </mxGraphModel>
  </diagram>
</mxfile>
